<svg width="24" height="25" viewBox="0 0 24 25" fill="none" xmlns="http://www.w3.org/2000/svg">
<g clip-path="url(#clip0_26_1076)">
<path d="M22.9407 15.8807L21.2666 14.7729C20.9769 14.5812 20.8268 14.239 20.8808 13.8958C20.9524 13.441 20.9905 12.975 20.9905 12.5C20.9905 12.025 20.9524 11.559 20.8808 11.1042C20.8268 10.7612 20.9771 10.4188 21.2666 10.2273L22.9407 9.11933C23.3327 8.86006 23.4551 8.34055 23.2202 7.93353L21.5647 5.06642C21.3298 4.65941 20.8187 4.50556 20.3982 4.71542L18.6017 5.61139C18.291 5.76645 17.9191 5.7253 17.649 5.50686C16.9267 4.92256 16.112 4.44795 15.2303 4.1083C14.9068 3.98361 14.6859 3.68202 14.6649 3.33613L14.5428 1.3348C14.514 0.865672 14.1253 0.5 13.6555 0.5H10.3448C9.87493 0.5 9.48615 0.865672 9.45741 1.3348L9.33526 3.33613C9.31416 3.68202 9.09338 3.98361 8.76985 4.1083C7.88818 4.44795 7.07354 4.92256 6.35119 5.50686C6.0811 5.7253 5.70924 5.76645 5.39846 5.61139L3.60207 4.71547C3.18146 4.50561 2.67043 4.65945 2.43554 5.06647L0.780053 7.93358C0.545162 8.34059 0.667459 8.86011 1.05947 9.11938L2.73361 10.2274C3.0233 10.4189 3.1734 10.7613 3.1194 11.1042C3.04782 11.559 3.00971 12.0251 3.00971 12.5C3.00971 12.975 3.04782 13.441 3.1194 13.8959C3.1734 14.239 3.0233 14.5813 2.73361 14.7729L1.05947 15.8807C0.667459 16.1402 0.545162 16.6595 0.780053 17.0665L2.43554 19.9338C2.67043 20.3406 3.18151 20.4945 3.60207 20.2848L5.39851 19.3888C5.70929 19.2337 6.08115 19.2749 6.35124 19.4934C7.07358 20.0777 7.88823 20.5525 8.7699 20.8919C9.09343 21.0166 9.31426 21.3182 9.3353 21.6641L9.45746 23.6652C9.48619 24.1342 9.87493 24.5 10.3448 24.5H13.6555C14.1254 24.5 14.5141 24.1342 14.5429 23.6652L14.665 21.6641C14.6861 21.3182 14.9069 21.0166 15.2304 20.8919C16.1121 20.5525 16.9267 20.0777 17.6491 19.4934C17.9192 19.2749 18.2911 19.2337 18.6018 19.3888L20.3983 20.2848C20.8188 20.4945 21.3299 20.3406 21.5648 19.9338L23.2203 17.0665C23.4551 16.6594 23.3327 16.1401 22.9407 15.8807ZM15.02 12.5C15.02 14.1679 13.6679 15.52 12.0002 15.52C10.3323 15.52 8.98022 14.168 8.98022 12.5C8.98022 10.8323 10.3323 9.48003 12.0002 9.48003C13.6679 9.48003 15.02 10.8323 15.02 12.5Z" fill="#333333"/>
</g>
<defs>
<clipPath id="clip0_26_1076">
<rect width="24" height="24" fill="white" transform="translate(0 0.5)"/>
</clipPath>
</defs>
</svg>
